<?xml version="1.0" standalone="no"?>
<!DOCTYPE svg PUBLIC "-//W3C//DTD SVG 20010904//EN"
 "http://www.w3.org/TR/2001/REC-SVG-20010904/DTD/svg10.dtd">
<svg version="1.0" xmlns="http://www.w3.org/2000/svg"
 width="108.000000pt" height="138.000000pt" viewBox="0 0 108.000000 138.000000"
 preserveAspectRatio="xMidYMid meet">

<g transform="translate(0.000000,138.000000) scale(0.100000,-0.100000)"
fill="#00005b" stroke="none">
<path d="M530 1096 l0 -64 44 -6 c111 -17 223 -104 274 -214 24 -50 27 -70 27
-157 0 -93 -2 -105 -33 -167 -52 -106 -160 -188 -269 -204 l-43 -6 0 -63 0
-62 51 8 c114 18 200 62 283 145 189 189 190 506 2 697 -81 82 -174 128 -303
151 l-33 6 0 -64z"/>
<path d="M347 1130 c-121 -38 -235 -138 -293 -255 -111 -229 -38 -493 177
-639 57 -38 161 -76 210 -76 29 0 29 1 29 59 l0 59 -37 7 c-110 19 -214 100
-265 203 -31 62 -33 74 -33 167 0 93 2 105 33 167 51 103 155 184 265 203 l37
7 0 59 0 59 -32 -1 c-18 0 -59 -8 -91 -19z"/>
<path d="M530 655 l0 -325 65 0 65 0 0 325 0 325 -65 0 -65 0 0 -325z"/>
</g>
</svg>
